# xmcd
#
# Track frame offsets: 
#        150
#        22455
#        37048
#        46018
#        58548
#        72115
#        84133
#        96895
#        110680
#        123988
#        134923
#        147595
#        158848
#        170093
#        189945
#        201735
#        214143
#        229043
#        239770
#        252355
#        263363
#        276645
#        289700
#
# Disc length: 4039 seconds
#
# Revision: 3
# Processed by: cddbd v1.5.2PL0 Copyright (c) Steve Scherf et al.
# Submitted via: ExactAudioCopy v1.0b3
#
DISCID=6b0fc517
DTITLE=Roosevelt Sykes - The Honeydripper:  1945 - 1960
DYEAR=1991
DGENRE=blues
TTITLE0=Miss Ida B
TTITLE1=Mislead Mother
TTITLE2=I Hate To Be Alone
TTITLE3=Satellite Baby
TTITLE4=Raining My Heart
TTITLE5=Lucky Blues
TTITLE6=Hot Boogie
TTITLE7=Four O'Clock Boogie
TTITLE8=Something Like That
TTITLE9=Walking The Boogie
TTITLE10=Security Blues
TTITLE11=Boogie Sykes
TTITLE12=Ruthie Lee
TTITLE13=Hey Big Momma
TTITLE14=Night Time Is The Right Time
TTITLE15=Stompin' The Boogie
TTITLE16=Hangover
TTITLE17=Sweet Old Chicago
TTITLE18=Hush Oh Hush
TTITLE19=I'm Tired
TTITLE20=Rock It
TTITLE21=Drivin' Wheel
TTITLE22=The Honeydripper
EXTD=Submitted 7/8/97\n[Jmccoy@efn.org]
EXTT0=
EXTT1=
EXTT2=
EXTT3=
EXTT4=
EXTT5=
EXTT6=
EXTT7=
EXTT8=
EXTT9=
EXTT10=
EXTT11=
EXTT12=
EXTT13=
EXTT14=
EXTT15=
EXTT16=
EXTT17=
EXTT18=
EXTT19=
EXTT20=
EXTT21=
EXTT22=
PLAYORDER=
